<?xml version="1.0" encoding="UTF-8"?>
<svg id="Layer_2" data-name="Layer 2" xmlns="http://www.w3.org/2000/svg" viewBox="0 0 133.97 221.43">
  <defs>
    <style>
      .cls-1, .cls-2, .cls-3 {
        fill: #f69220;
      }

      .cls-4, .cls-5, .cls-2 {
        stroke-miterlimit: 10;
      }

      .cls-4, .cls-2 {
        stroke: #f69220;
      }

      .cls-6 {
        fill: #eec31b;
      }

      .cls-6, .cls-7, .cls-3, .cls-8 {
        fill-rule: evenodd;
      }

      .cls-7 {
        fill: #fff;
      }

      .cls-5 {
        stroke: #010101;
        stroke-width: 3px;
      }

      .cls-8 {
        fill: #393939;
      }
    </style>
  </defs>
  <g id="Layer_1-2" data-name="Layer 1">
    <g>
      <path class="cls-6" d="M17.89,55.55c1.84,0,3.32,1.49,3.32,3.32s-1.49,3.32-3.32,3.32h-8.29c-1.83.01-3.32-1.48-3.32-3.31s1.49-3.32,3.32-3.32h8.29ZM25.87,32.37c1.58.91,2.13,2.93,1.22,4.52-.91,1.58-2.93,2.13-4.52,1.22l-7.17-4.14c-1.58-.91-2.13-2.93-1.22-4.52.91-1.58,2.93-2.13,4.52-1.22l7.17,4.14h0ZM44.39,16.28c.92,1.58.38,3.61-1.21,4.53-1.58.92-3.61.38-4.53-1.21l-4.14-7.17c-.92-1.58-.38-3.61,1.21-4.53,1.58-.92,3.61-.38,4.53,1.21l4.14,7.17h0ZM112.88,38.11c-1.58.91-3.61.36-4.52-1.22-.91-1.58-.36-3.61,1.22-4.52l7.17-4.14c1.58-.91,3.61-.36,4.52,1.22.91,1.58.36,3.61-1.22,4.52l-7.17,4.14h0ZM96.8,19.6c-.92,1.58-2.95,2.13-4.53,1.21-1.58-.92-2.13-2.95-1.21-4.53l4.14-7.17c.92-1.58,2.95-2.13,4.53-1.21s2.13,2.95,1.21,4.53l-4.14,7.17h0ZM73.62,11.61c0,1.84-1.49,3.32-3.32,3.32s-3.32-1.49-3.32-3.32V3.32c0-1.84,1.49-3.32,3.32-3.32s3.32,1.49,3.32,3.32v8.29h0ZM117.56,62.2c-1.84,0-3.32-1.49-3.32-3.32s1.49-3.32,3.32-3.32h8.28c1.84,0,3.32,1.49,3.32,3.32s-1.49,3.32-3.32,3.32h-8.28Z"/>
      <path class="cls-3" d="M66.03,24.77h3.37c16.56,0,30.12,13.55,30.12,30.12v30.54h-63.6v-30.55c-.01-16.56,13.55-30.11,30.11-30.11h0Z"/>
      <path class="cls-7" d="M50.4,75.26h-6.13v-7.98c0-2.23,0-2.47,0-2.73-.09-8.52-.17-15.78,6.97-23.21,2.03-2.11,4.39-3.78,7.03-5.07-6.1,12.13-8.13,25.08-7.86,38.99h0Z"/>
      <path class="cls-8" d="M30.87,85.24h74.04c3.49,0,6.34,2.85,6.34,6.34v4.66c0,3.49-2.85,6.34-6.34,6.34H30.87c-3.49,0-6.34-2.85-6.34-6.34v-4.66c0-3.49,2.85-6.34,6.34-6.34h0Z"/>
      <path class="cls-4" d="M69.07,220.92v-.23c.14,0,.28-.02.42-.03,2.63-.3,4.95-1.51,6.95-2.97.08-.06.16-.11.25-.17,2.59-1.82,4.14-4.86,4.62-7.69.02-.3.13-.75.14-1.05.07-.83.09-1.41.28-2.19.26-1.12.5-2.23.73-3.35.02-.08.03-.15.05-.23.08-.41.16-.82.25-1.22.18-.91.37-1.82.55-2.74.02-.1.04-.19.06-.29.35-1.71.7-3.42,1.05-5.13.05-.25.1-.5.15-.75.23-1.1.46-2.2.68-3.3.1-.46.19-.92.28-1.37.04-.21.09-.43.13-.64.06-.29.12-.59.18-.88.02-.08.04-.17.05-.26.09-.42.15-.83.2-1.25.05-.42.14-.81.27-1.21.11-.38.19-.77.26-1.15q.03-.13.05-.27c.06-.29.12-.58.18-.87.04-.21.09-.42.13-.62.11-.56.23-1.12.34-1.68.12-.58.24-1.16.35-1.74.14-.7.29-1.41.43-2.11.28-1.38.57-2.77.85-4.15.11-.54.22-1.07.33-1.61.09-.42.17-.83.26-1.25.1-.46.19-.91.28-1.37q.04-.2.08-.4c.13-.62.22-1.19.19-1.82.08,0,.15,0,.23,0,2.78.03,5.42-.56,8.05-1.27.09-.03.19-.05.29-.08,2.56-.7,5.06-1.75,7.21-3.16.07-.05.15-.1.23-.15.87-.56,1.7-1.16,2.5-1.81.28-.22.56-.44.85-.65.43-.33.81-.69,1.18-1.07.26-.26.52-.51.79-.77,3.39-3.31,5.76-7.48,7.86-11.5.54-1.03,1.09-2.04,1.65-3.06.7-1.26,1.38-2.53,2.05-3.8.57-1.09,1.16-2.16,1.76-3.24.58-1.05,1.15-2.09,1.7-3.15.65-1.23,1.31-2.45,1.99-3.67.84-1.51,1.65-3.02,2.45-4.54.24-.45.48-.9.72-1.34.62-1.12,1.14-2.21,1.5-3.42.03-.11.06-.22.1-.33.68-2.84-.02-5.65-1.41-8.22-.06-.12-.13-.24-.19-.36-1.67-2.91-4.75-4.97-8.2-6.04-.7-.2-1.39-.35-2.12-.41,0-.08-1,0-1-.08-4.28-.22-6.7.77-7.94,1.24q-.17.12-.34.23c-.37.26-.74.53-1.1.81q-.11.08-.21.16c-.39.29-.77.58-1.15.87-.31.23-.62.46-.93.69-1.03.77-2.02,1.56-3.01,2.38-.4.33-.81.66-1.22.98-.44.35-.87.71-1.28,1.08-.23.2-.46.38-.71.56-.54.41-1.05.85-1.55,1.3-.35.32-.72.61-1.1.9-.75.57-1.43,1.19-2.12,1.81-.47.42-.94.82-1.44,1.2-.71.53-1.36,1.12-2.01,1.7-.13.11-.26.23-.39.34-.24.21-.47.42-.71.63-.11.09-.21.19-.32.29-.12.1-.23.21-.35.31-.37.32-.76.61-1.15.9-.07.06-.14.12-.21.18v.23q-.12.05-.24.1c-.28.13-.46.26-.69.45-.07.06-.15.13-.23.2-.08.07-.16.14-.24.22-.09.07-.17.15-.26.23-.28.25-.57.5-.85.74-.2.17-.39.34-.59.52-.41.36-.82.72-1.24,1.08-.53.46-1.06.93-1.59,1.39-.41.36-.81.71-1.22,1.07-.19.17-.39.34-.59.51-.27.24-.54.48-.82.72-.08.07-.16.14-.25.21q-.55.49-.55.88h-.26q0-.11,0-.22c0-1.76.01-3.53.01-5.29,0-.85,0-1.71,0-2.56,0-.74,0-1.49,0-2.23,0-.39,0-.79,0-1.18.02-4.38-.94-8.17-4.5-11.38-2.31-1.97-5.6-3.39-8.83-3.56q-.25,0-.5-.14c-3.84-.21-7.42.89-10.39,3-.09.06-.18.12-.27.19-.59.43-1.09.91-1.57,1.43-.09.1-.19.2-.28.3-.77.85-1.33,1.74-1.84,2.73-.09.17-.18.33-.27.5-1.04,2.01-.96,4.27-.95,6.43,0,.41,0,.83,0,1.24,0,.69,0,1.38,0,2.07,0,.89,0,1.78,0,2.66,0,.77,0,1.53,0,2.3,0,.16,0,.33,0,.49,0,.54,0,1.07,0,1.61,0,.14,0,.27,0,.41,0,.12,0,.25,0,.37,0,.11,0,.21,0,.33q.02.27.15.62h-.26c-.03-.07-.06-.13-.1-.2-.19-.31-.42-.51-.7-.76-.11-.1-.22-.2-.34-.3-.12-.11-.25-.21-.37-.32-.13-.11-.26-.23-.39-.34-.35-.31-.71-.62-1.06-.93-.37-.33-.74-.65-1.12-.98-.63-.55-1.25-1.1-1.88-1.65-.72-.63-1.44-1.26-2.16-1.9-.77-.68-1.54-1.35-2.31-2.03-.22-.19-.44-.39-.66-.58-.35-.31-.7-.61-1.05-.92-.19-.16-.37-.33-.56-.49-.58-.51-1.18-1.01-1.8-1.48-.41-.31-.78-.65-1.16-.98-.08-.07-.17-.15-.25-.22-.26-.23-.53-.47-.79-.7q-2.01-1.78-2.81-2.37c-.38-.29-.72-.6-1.07-.92-.54-.48-1.08-.93-1.66-1.37-.29-.23-.57-.47-.84-.71-.43-.38-.87-.74-1.33-1.09-.42-.32-.82-.66-1.23-.99-.65-.53-1.3-1.05-1.97-1.56-.13-.1-.25-.19-.38-.29-3.41-2.57-6.48-3.6-11.06-3.29-2.86.3-5.47,1.48-7.63,3.12q-.1.08-.21.16c-2.33,1.8-3.7,4.28-4.4,6.89-.02.09-.05.17-.07.26-.08.4-.09.8-.09,1.21,0,.09,0,.17,0,.26,0,.18,0,.37,0,.55,0,.18,0,.37,0,.55-.06,2.86,1.09,5.15,2.52,7.67.95,1.67,1.85,3.36,2.72,5.06.57,1.12,1.17,2.23,1.77,3.34.79,1.47,1.56,2.95,2.31,4.44.52,1.03,1.04,2.05,1.59,3.06.3.56.6,1.12.89,1.68q.06.12.12.23c.04.08.08.16.12.24,3.95,7.69,8.35,15.95,17.08,20.28.09.04.18.09.27.13,3.82,1.91,8.82,3.46,13.28,3.22q.02.12.03.25c.14.94.33,1.87.54,2.8.22.98.43,1.97.61,2.96.2,1.08.42,2.15.67,3.22.18.81.34,1.61.49,2.42.31,1.64.65,3.27.99,4.9.09.42.17.84.26,1.26.02.08.04.17.05.26.04.17.07.34.11.51.05.25.11.51.16.76.31,1.48.61,2.97.92,4.45.02.12.05.23.07.35.12.58.24,1.15.35,1.73.22,1.07.44,2.14.66,3.22.07.36.15.72.22,1.08.25,1.22.5,2.43.75,3.65.22,1.09.45,2.18.67,3.26.11.56.23,1.12.34,1.68.13.61.25,1.22.37,1.84.02.1.04.19.06.29.23,1.15.43,2.3.57,3.46.33,2.62,1.3,4.87,3.2,6.93.1.11.21.22.31.34,3.58,3.65,8.29,4.39,13.5,4.28ZM60.52,214.33c-.09-.06-.18-.13-.27-.19-1.63-1.26-2.18-3.36-2.75-5.12-.04-.13-.09-.26-.13-.39-.24-.76-.36-1.53-.48-2.31-.18-1.08-.43-2.15-.68-3.21-.18-.78-.34-1.56-.47-2.34-.13-.74-.3-1.48-.46-2.21-.29-1.31-.57-2.61-.77-3.93-.17-1.04-.42-2.08-.67-3.11-.14-.6-.28-1.2-.35-1.81q-.05-.43-.18-.66c-.04-.2-.08-.41-.12-.61-.14-.76-.3-1.52-.46-2.27-.2-.93-.38-1.85-.53-2.79-.2-1.24-.49-2.47-.78-3.7-.1-.45-.2-.9-.3-1.35-.03-.13-.06-.26-.08-.39-.07-.36-.14-.73-.21-1.09-.16-.87-.35-1.74-.54-2.61-.17-.78-.31-1.56-.44-2.35-.22-1.34-.53-2.66-.83-3.99-.07-.31-.14-.62-.21-.92q-.03-.14-.07-.28c-.02-.09-.04-.17-.06-.26q-.03-.11-.05-.23c-.05-.35-.04-.71-.04-1.07,13.81,0,39.26,0,36.43,0q-.09.8-.26,1.56c-.14.51-.22,1.02-.31,1.54-.22,1.36-.52,2.71-.81,4.06-.09.43-.18.86-.26,1.28-.23,1.14-.46,2.27-.7,3.41-.03.16-.07.31-.1.47q-.02.12-.05.24c-.1.48-.2.96-.29,1.45-.2,1.01-.42,2.02-.65,3.03-.29,1.28-.57,2.55-.77,3.84-.17,1.06-.4,2.11-.63,3.16-.1.49-.21.97-.3,1.46-.17.87-.35,1.73-.54,2.6-.03.11-.05.23-.08.34-.1.47-.21.94-.31,1.4-.28,1.27-.55,2.54-.77,3.82-.14.79-.3,1.57-.47,2.36-.16.73-.31,1.46-.44,2.2-.18,1.04-.41,2.08-.64,3.11-.05.24-.1.47-.15.71-.37,1.74-.77,3.44-1.72,5.03q-.07.12-.14.23c-1.15,1.92-2.92,2.94-5.23,3.65-3.13.81-6.4.1-8.84-1.74ZM41.48,160.32c-.14-.02-.29-.04-.43-.06-4.33-.63-8.63-2.02-11.96-4.6q-.16-.12-.33-.25c-.34-.26-.66-.52-.99-.79q-.18-.15-.37-.3c-4.43-3.7-7.01-8.99-9.51-13.79-.12-.23-.24-.47-.36-.7-.91-1.74-1.82-3.49-2.72-5.24-.29-.55-.57-1.11-.86-1.66-.17-.32-.34-.65-.5-.97-1.49-2.88-3.01-5.73-4.56-8.58-.21-.39-.43-.79-.64-1.18-.15-.27-.3-.55-.45-.82-.45-.83-.9-1.67-1.32-2.51-.04-.07-.08-.15-.11-.22-.98-1.96-.95-4.13-.07-6.11,1.02-2.18,2.71-3.8,5.19-4.71.21-.07.42-.13.63-.19q.14-.05.29-.09c.9-.26,1.72-.31,2.66-.3q.21,0,.42,0c3.1.01,4.98,1.86,7.1,3.61.33.27.67.54,1.01.8.51.38.98.8,1.45,1.23.28.24.56.46.85.68.59.45,1.13.93,1.67,1.41.19.17.38.33.56.5q.12.11.25.22c.26.22.53.43.8.63.58.44,1.12.91,1.66,1.39.1.09.2.18.31.27.32.28.64.57.96.85.42.37.84.75,1.27,1.12q.14.13.29.26c.09.08.18.16.28.24.08.07.16.14.24.21.25.21.51.41.77.61.68.52,1.31,1.07,1.94,1.63.13.12.27.23.4.35.36.32.72.63,1.08.95.38.33.76.66,1.13.99.63.56,1.27,1.11,1.9,1.67.73.64,1.46,1.28,2.19,1.93.63.55,1.26,1.11,1.89,1.66.37.33.75.66,1.13.99.35.31.71.62,1.06.93.13.11.26.23.39.34.65.57,1.29,1.15,1.89,1.76.27.27.57.5.89.73.11.08.22.16.34.25.14.08.27.17.41.25.08.05.15.1.23.15,1.16.62,2.43.51,3.73.5.27,0,.54,0,.81,0,.73,0,1.46,0,2.18,0,.76,0,1.53,0,2.29,0,1.28,0,2.57,0,3.85,0,1.48,0,2.96,0,4.44,0,1.27,0,2.55,0,3.82,0,.76,0,1.52,0,2.28,0,.72,0,1.43,0,2.15,0,.26,0,.52,0,.78,0,2.76.01,4.81-.56,6.83-2.27q.16-.13.31-.27c.44-.38.85-.76,1.25-1.17.75-.75,1.57-1.45,2.38-2.15.33-.28.65-.57.98-.85q.11-.09.22-.19c.37-.33.73-.66,1.07-1.01.46-.46.93-.89,1.43-1.32.09-.08.18-.16.27-.23.19-.17.38-.33.57-.5.3-.26.6-.53.91-.79.64-.56,1.28-1.12,1.92-1.68.74-.65,1.49-1.3,2.23-1.95.3-.26.59-.52.89-.78.18-.16.37-.32.55-.48.08-.07.16-.14.25-.21.49-.43.96-.88,1.41-1.34.23-.23.47-.45.71-.67q.12-.1.23-.21c.25-.21.5-.4.76-.6.67-.51,1.3-1.07,1.92-1.62.13-.11.25-.22.38-.33.46-.41.92-.82,1.38-1.22.39-.35.78-.69,1.18-1.04.18-.16.36-.32.54-.48.58-.52,1.18-1.01,1.81-1.49.33-.25.64-.53.94-.8.48-.42.96-.83,1.48-1.22.25-.19.48-.37.72-.57.89-.71,1.66-1.25,2.86-1.51.08-.02.16-.04.24-.06.61-.12,1.25-.08,1.88-.08.14,0,.28,0,.43,0,1.39,0,2.56.26,3.79.82q.14.06.27.12c.65.3,1.24.63,1.81,1.05.11.07.21.14.32.21,1.61,1.2,2.69,3.14,2.87,4.97.02.37.04.74.04,1.11,0,.12,0,.23.01.35,0,1.7-.83,3.2-1.68,4.69-.09.16-.18.31-.27.47-.18.31-.35.63-.53.94-.33.58-.64,1.16-.96,1.74-.06.1-.11.21-.17.31-.35.65-.7,1.3-1.05,1.95-.04.08-.09.16-.13.24q-.36.68-.54,1c-.68,1.28-1.38,2.55-2.08,3.82-.65,1.17-1.28,2.35-1.9,3.54-.57,1.09-1.16,2.16-1.76,3.24-.57,1.04-1.13,2.08-1.68,3.12q-3.24,6.25-7.73,11.84c-.09.09-.18.19-.28.28-.3.3-.6.59-.91.87-.06.06-.12.11-.18.17-2.22,2.08-4.83,3.63-7.84,4.68q-.12.04-.24.09c-1.83.62-3.76,1.05-5.69,1.34-.11.02-.22.03-.34.05-2.7.37-5.41.41-8.14.4-.51,0-1.02,0-1.54,0-1,0-2,0-3,0-1.17,0-2.33,0-3.5,0-2.08,0-4.17,0-6.25,0-2.02,0-4.03,0-6.05,0h-.38c-.12,0-.25,0-.38,0-2.3,0-4.61,0-6.91,0-.81,0-1.62,0-2.43,0-.99,0-1.98,0-2.97,0-.5,0-1.01,0-1.51,0q-3.87.02-7.71-.33ZM57.36,131.87c0-2.71-.02-5.43-.02-8.22,0-.85,0-1.71-.01-2.59q0-.77,0-1.54c0-.34,0-.68,0-1.02,0-.44,0-.87,0-1.31,0-.23,0-.47,0-.7,0-1.29.26-2.51.86-3.69q.06-.12.12-.24c.37-.69.84-1.26,1.43-1.82.1-.1.19-.19.29-.29.84-.79,1.76-1.32,2.86-1.78.14-.06.29-.12.44-.19,2.12-.76,4.94-.66,7.06.07,2.41.92,4.23,2.66,5.22,4.78q.08.21.17.42c.03.08.07.15.1.23.34.87.35,1.7.34,2.61,0,.17,0,.33,0,.5,0,.45,0,.9,0,1.35,0,.47,0,.95,0,1.42,0,.89,0,1.79,0,2.68,0,1.21,0,2.42,0,3.63,0,1.9-.01,3.8-.02,5.71h-18.81Z"/>
      <path class="cls-7" d="M62.75,129.01h-2.99v-3.73c0-1.04,0-1.16,0-1.28-.04-3.99-.08-7.38,3.4-10.86.99-.99,2.14-1.77,3.42-2.37-2.97,5.67-3.96,11.73-3.83,18.24h0Z"/>
    </g>
    <path class="cls-1" d="M74.69,129.16l-.03-6.9c0-2.09.08-4.21-.71-6.2-.71-1.79-1.86-3.32-3.12-4.77-1.18-1.36-2.56-3.16-4.59-2.88-.83.12-1.51.57-2.11,1.13-.7.66-1.31,1.23-2.09,1.8-1.58,1.14-2.43,2.98-3.22,4.7-.93,2.01-1.4,4.07-1.44,6.29-.02,1.03.05,2.06.13,3.08.08.97.1,2.02.4,2.96.32.98.94,1.83,1.93,2.2s2.19.21,3.26.18c2.65-.09,5.31-.19,7.96-.28,1.93-.07,1.93-3.07,0-3-1.83.06-3.66.13-5.49.19-.88.03-1.77.06-2.65.09-.41.01-1.69.26-2.01.02-.31-.22-.29-1.12-.32-1.45-.09-.96-.17-1.93-.2-2.9-.05-1.74.08-3.44.69-5.08.5-1.34,1.19-2.95,2.13-4.04.48-.56,1.17-.87,1.74-1.33.51-.42.89-.99,1.4-1.39.4-.31.55-.11.91.24.55.54,1.06,1.13,1.56,1.72.96,1.12,1.91,2.35,2.4,3.76.6,1.7.43,3.58.44,5.35l.03,6.51c0,1.93,3.01,1.93,3,0h0Z"/>
    <path class="cls-1" d="M63,127.33c-.15-1.31-.28-2.62-.17-3.94s.67-2.31,1.42-3.34,1.31-2.09,1.72-3.32c.26-.78.5-1.89,1.17-2.37.6-.44.93-1.15.61-1.87-.28-.64-1.06-1.13-1.77-.87-1.77.64-2.78,2.07-3.87,3.53-1.16,1.54-2.31,3.08-3.47,4.62-.49.65-.1,1.68.54,2.05.77.45,1.56.11,2.05-.54.99-1.32,1.98-2.64,2.97-3.96.67-.89,1.46-2.41,2.57-2.81l-1.16-2.74c-1.17.85-1.79,1.97-2.26,3.32-.19.53-.34,1.08-.55,1.6-.28.67-.73,1.26-1.16,1.85-.95,1.3-1.56,2.66-1.77,4.27-.2,1.51-.06,3.02.11,4.52.09.81.63,1.5,1.5,1.5.74,0,1.59-.69,1.5-1.5h0Z"/>
    <path class="cls-1" d="M67.25,113.62c-.07,1-.13,2.36-.9,3.09-.4.39-1,.47-1.52.61-.73.19-1.45.44-2.05.9-1.37,1.06-1.46,2.67-1.36,4.26.04.59.11,1.22-.14,1.78-.3.7-.91,1.24-1.44,1.76l2.56,1.06c.29-2.84.51-5.71.89-8.54.15-1.12.38-2.29,1-3.25.22-.34.5-.67.83-.91.18-.14.4-.26.61-.35.14-.06.52-.04.37-.15l-.54-.54c.06.08-.05.6-.08.82-.1.61-.21,1.22-.34,1.83-.23,1.12-.51,2.24-.83,3.33s-.72,2.28-1.16,3.39c-.39,1-1.03,2.02-.96,3.12.08,1.23,1.09,1.91,2.05,2.49s2.09,1.05,3.23.97c2.32-.17,3.93-2.49,2.94-4.64-.34-.74-1.4-.92-2.05-.54-.76.44-.88,1.31-.54,2.05-.14-.3.06-.18-.07-.15-.03,0-.21.21-.26.24-.36.17-.81-.03-1.15-.19-.28-.13-.55-.3-.82-.47-.14-.09-.52-.51-.41-.14.09.3.16-.09.23-.26.16-.38.33-.77.48-1.15,1.06-2.61,1.86-5.33,2.37-8.1.23-1.23.71-2.8.06-3.98-.76-1.36-2.49-1.2-3.71-.69-2.45,1.03-3.68,3.54-4.09,6.03-.53,3.22-.72,6.51-1.06,9.75-.14,1.36,1.7,1.89,2.56,1.06,1.29-1.24,2.36-2.63,2.48-4.48.05-.78-.11-1.56-.07-2.35.03-.57.2-.79.74-.96,1.58-.5,2.99-.82,3.97-2.29.87-1.3,1.05-2.94,1.16-4.46.06-.81-.73-1.5-1.5-1.5-.86,0-1.44.69-1.5,1.5h0Z"/>
    <path class="cls-1" d="M70.95,124.79c-.32-2.79-.63-5.58-.95-8.37l-2.56,1.06c2.12,2.51,2.8,6.12,1.86,9.28-.23.78.28,1.63,1.05,1.85s1.61-.27,1.85-1.05c1.26-4.23.2-8.85-2.63-12.2-.8-.94-2.7-.22-2.56,1.06.32,2.79.63,5.58.95,8.37.09.8.62,1.5,1.5,1.5.74,0,1.59-.69,1.5-1.5h0Z"/>
    <path class="cls-1" d="M69.04,125.76c-.24.02-.48,0-.71-.02l.4.05c-.16-.02-.31-.06-.47-.1-.08-.02-.15-.05-.23-.08-.27-.09.3.15.07.03-.14-.08-.28-.15-.41-.24-.04-.03-.09-.06-.13-.09l.18.14c-.08-.04-.15-.13-.21-.18-.06-.06-.11-.11-.17-.17-.22-.24.12.18.03.06-.09-.14-.18-.27-.26-.42-.15-.3.06.2.02.05-.03-.08-.06-.16-.08-.24-.05-.17-.09-.35-.11-.53l.05.4c-.04-.31-.04-.61,0-.91l-.05.4c.02-.14.05-.27.08-.41.02-.08.05-.16.07-.24.02-.06.12-.29.02-.05s.01,0,.03-.05c.03-.06.07-.11.1-.17.08-.14-.25.25-.07.1l-.19.15c-.25.09-.3.12-.16.09l-.4.05s.08,0,.13,0l-.4-.05c.14.04.08,0-.18-.09-.21-.18-.26-.21-.15-.11.1.11.07.07-.1-.14.03.04.05.08.08.13.02.04.05.09.07.13-.1-.25-.12-.3-.07-.16.03.13.08.25.12.38.15.51.25,1.02.33,1.55l-.05-.4c.08.66.11,1.31.07,1.98-.04.78.72,1.53,1.5,1.5.85-.04,1.45-.66,1.5-1.5.07-1.22-.07-2.46-.37-3.64-.17-.67-.4-1.31-.85-1.84-.61-.72-1.66-.96-2.5-.5-1.15.62-1.61,2.25-1.57,3.47s.53,2.44,1.42,3.3c.95.92,2.31,1.47,3.64,1.38.78-.05,1.54-.65,1.5-1.5-.03-.77-.66-1.56-1.5-1.5h0Z"/>
    <path class="cls-1" d="M66.15,108.04c-1.49-.54-2.91.3-4.04,1.2-.9.71-1.78,1.45-2.48,2.36-.38.49-.69.99-.94,1.56-.12.29-.23.58-.33.88.04-.14.13-.18-.01-.04-.1.1-.21.2-.31.31-.49.54-.68,1.16-.78,1.87s-.21,1.44-.32,2.15c-.12.77.19,1.65,1.05,1.85.71.16,1.72-.22,1.85-1.05.09-.6.18-1.2.27-1.79.04-.27.07-.54.13-.81,0-.02.07-.26.06-.27.05.03-.31.36-.03.07.47-.47.79-.92,1.02-1.55.04-.12.08-.24.12-.36.08-.25-.02.03.04-.11.11-.22.22-.42.36-.62.07-.1.13-.2.21-.29-.1.13-.02.03.04-.04.16-.18.33-.36.5-.53.35-.35.72-.67,1.1-.98.45-.37.55-.48,1.04-.76.09-.05.18-.1.27-.14-.21.1.1-.02.13-.03.11-.02.09-.03-.05,0h.14c-.26-.1.09.03.16.06.74.27,1.67-.3,1.85-1.05.19-.84-.26-1.56-1.05-1.85h0Z"/>
    <path class="cls-1" d="M59.94,118.89l.25-3.69c0-.13.14-.84.06-.92.15.15-.72.75-.09.38.32-.19.57-.41.78-.71.08-.09.14-.19.19-.3.14-.23.1-.22-.13.02-.13.1-.26.12-.38.06.18.05.21.06.1.02.18.11.33.24.49.37.52.43,1.02.78,1.66,1,1.03.36,2.15.29,3.22.34.93.04,1.97.26,2.76.78.3.2.29.18.25.59-.02.24-.14.81-.21.97-.1.22-.12.27-.25.36.23-.15-.11,0-.21.01.21-.03-.36-.01-.42-.01-.22,0-.45-.03-.67-.04-1.11-.07-2.12.1-2.97.87l2.51,1.46c.57-1.51.87-3.14.88-4.75,0-.77-.1-1.52-.19-2.29-.03-.28-.08-.65-.04-.87.03-.19.21-.25-.07-.15.76-.29,1.28-1.01,1.05-1.85-.2-.73-1.08-1.34-1.85-1.05-.97.37-1.68,1.07-1.98,2.08-.28.94-.08,1.86.02,2.81.19,1.81-.07,3.56-.71,5.26-.23.61.15,1.38.69,1.69.59.35,1.32.22,1.82-.23-.13.12.01-.02.06-.03-.16.05-.01,0,.06.01-.21-.03.22,0,.31,0,.45,0,.89.07,1.34.07,1.11,0,2.15-.38,2.84-1.27s.93-1.99,1-3.06c.09-1.29-.53-2.37-1.58-3.08-.93-.63-2.1-1-3.2-1.17-1.01-.15-2.15-.03-3.1-.2s-1.55-1.11-2.49-1.45c-1.16-.42-2.47-.06-3.11,1.03.01-.02-.15.32-.17.32.23-.21.27-.28.12-.19-.05.02-.09.05-.13.07-.32.15-.65.46-.83.76-.36.58-.36,1.26-.4,1.92l-.27,4.03c-.05.81.73,1.5,1.5,1.5.86,0,1.45-.69,1.5-1.5h0Z"/>
    <path class="cls-1" d="M74.44,129.16h-.04c.27.01.53.01.8.01h-.04c.12.04.24.09.36.14l-.03-.02.3.23-.03-.03.23.3-.03-.04.15.36c-.02-.05-.03-.09-.04-.15l.05.4c-.11-1.32-.13-2.65-.08-3.98.03-.78-.71-1.54-1.5-1.5-.84.04-1.46.66-1.5,1.5s-.04,1.74,0,2.61c.02.43.04.86.08,1.28.04.51.14.95.51,1.34.42.43,1.02.59,1.6.44.76-.2,1.3-1.08,1.05-1.85s-1.03-1.26-1.85-1.05h0Z"/>
    <path class="cls-1" d="M75.89,124.6l-.05-5.95c0-.97-.01-1.95-.02-2.92-.01-1.05-.23-2.06-1.2-2.64-.69-.42-1.65-.15-2.05.54s-.16,1.63.54,2.05c-.16-.1-.27-.24-.32-.42.03.15.04.17.03.06.02-.17,0,.25,0,.3,0,.44,0,.87.01,1.31l.02,2.52.04,5.14c0,.81.68,1.5,1.5,1.5s1.51-.69,1.5-1.5h0Z"/>
    <path class="cls-1" d="M74.34,111.79c-.23-.03.12.09.2.14.09.08.11.09.05.03-.08-.08-.05-.04.09.13-.07-.12-.16-.24-.25-.35-.33-.44-.68-.77-1.15-1.06-.7-.43-1.41-.88-2.14-1.25-.94-.47-1.86-.7-2.9-.78-.47-.04-.94-.07-1.4.03-.7.15-1.17.65-1.4,1.31-.26.74.3,1.67,1.05,1.85.84.19,1.56-.26,1.85-1.05l-.77.8-.23.03s.13,0,.17,0c.18,0,.36.01.54.03s.36.03.54.05c-.15-.02-.14-.02,0,0,.09.02.18.03.26.06.17.04.33.09.5.15.14.05.13.05,0,0,.08.04.16.07.23.11.33.16.64.34.96.53.29.17.58.35.87.52.14.08.28.17.42.25.03.02.24.16.08.04s.03.04.06.07c.16.11-.15-.22-.05-.08.03.05.07.11.11.16.13.18.26.37.4.53.28.31.71.6,1.13.66s.78.07,1.16-.15c.31-.18.61-.54.69-.9.16-.71-.22-1.73-1.05-1.85h0Z"/>
    <path class="cls-1" d="M58.05,131.41c.46.1.93.11,1.38-.05.34-.12.66-.29.99-.43l-.36.15c.21-.09.42-.14.64-.18l-.4.05c.45-.06.91-.02,1.36.04l-.4-.05c.11.02.23.03.34.05l-.36-2.74s-.08.04-.11.06l.36-.15c-.16.07-.33.11-.5.13l.4-.05c-.42.06-.86.06-1.27.2-.61.2-1.08.54-1.44,1.08-.52.79-.01,1.99.9,2.2,1.04.24,2.07.24,3.12.05.35-.07.72-.39.9-.69.19-.32.27-.8.15-1.16s-.34-.71-.69-.9c-.37-.2-.74-.23-1.16-.15-.1.02-.19.03-.29.05l.4-.05c-.51.07-1.02.07-1.53,0l.4.05c-.17-.02-.34-.06-.5-.09l.9,2.2.03-.05-.23.3c.05-.06.09-.11.15-.16l-.3.23c.07-.06.15-.1.23-.14l-.36.15c.18-.07.36-.11.55-.14l-.4.05c.65-.08,1.25-.12,1.83-.45.52-.29.79-.92.72-1.49-.04-.27-.13-.49-.3-.71-.18-.23-.48-.49-.78-.54-.63-.09-1.29-.21-1.93-.16-.36.03-.74.07-1.09.2s-.68.3-1.02.45l.36-.15c-.12.05-.24.08-.36.1l.4-.05c-.08,0-.16,0-.25,0l.4.05h-.06c-.4-.1-.8-.07-1.16.14-.31.18-.61.54-.69.9-.09.38-.07.81.15,1.16.2.32.52.61.9.69h0Z"/>
    <path class="cls-1" d="M62.38,131.79c1.81-.2,3.62-.34,5.44-.43.89-.04,1.78-.07,2.67-.09.65-.01,1.63-.1,2.06.09.74.34,1.62.21,2.05-.54.39-.66.19-1.69-.54-2.05-1.02-.5-2.07-.58-3.18-.68-.71-.06-1.52-.35-2.25-.71-.91-.45-1.8-1.02-2.78-1.29-.63-.17-1.29-.21-1.92-.07-.23.05-.45.14-.68.22-.09.03-.5.09-.22.14-.8-.13-1.62.21-1.85,1.05-.2.72.24,1.71,1.05,1.85.64.11,1.19.07,1.81-.14.19-.07.39-.16.59-.2.04,0,.26,0,.23,0,.86.19,1.64.74,2.42,1.12.99.48,1.97.84,3.06.98.42.05.84.08,1.26.12.31.03.71.09.95.21l1.51-2.59c-1.77-.82-3.92-.52-5.82-.43s-3.92.24-5.87.45c-.81.09-1.5.63-1.5,1.5,0,.74.69,1.59,1.5,1.5h0Z"/>
    <path class="cls-5" d="M37.18,122.93c2.82,2.51,5.55,5.09,10.88,9.76,1.89,1.66,2.85,2.49,3.21,2.71,4.32,2.6,7.83,1.18,15.65.93,9.97-.32,10.75,1.59,15.03-.1,3.17-1.25,4.79-3.11,8.18-6.8,9.39-10.21,22.38-23.66,28.96-22.22.04,0,.09.02.1.02.91.21,5.99,1.5,7.85,5.41,0,0,.22.37.41.98.12.55.26,1.36.29,2.35.17,5.42-3.18,9.33-5.55,12.52-5.82,7.83-3.3,8-9.35,16.41-4.1,5.71-6.96,9.68-11.45,12.64-7.29,4.81-10.21,1.23-35.36,3.1,0,0-12.81.95-24.55-.34-1.85-.2-5.39-.68-9.29-2.71-.65-.34-2.61-1.4-4.79-3.29-2.93-2.53-4.65-5.12-6.18-7.64-4.41-7.25-3.23-7.2-6.41-12.09-2.38-3.65-6.9-9.63-8.81-14.79-.07-.19-.18-.5-.29-.92-.69-2.66-.5-6.66,1.93-9.2,2.62-2.74,6.61-2.5,7.43-2.45,3.07.19,5.01,1.6,12.5,7.72,5.18,4.24,7.77,6.35,9.6,7.98Z"/>
    <path class="cls-2" d="M85.1,165.12c1.45,3.02-3.57,19.42-5.48,27.79-2.3,10.08-2.54,24.26-12.74,23.48-8.02-.62-7.57-2.64-10.25-9.02-2.94-7.01-8.21-34.57-7.97-42.25"/>
  </g>
</svg>