<?xml version="1.0" encoding="UTF-8"?>
<svg id="Layer_2" data-name="Layer 2" xmlns="http://www.w3.org/2000/svg" viewBox="0 0 86.79 206.32">
  <defs>
    <style>
      .cls-1 {
        fill: #ed2024;
      }

      .cls-2 {
        fill: #9e1f63;
      }

      .cls-3 {
        fill: #662d91;
      }

      .cls-4 {
        fill: #010101;
      }
    </style>
  </defs>
  <g id="basebody">
    <g id="SVGRepo_iconCarrier" data-name="SVGRepo iconCarrier">
      <g>
        <path d="M51.2,22.87c1.49-1.21,2.06-4.41,2.06-4.41,2.47-1.89,2.34-4.66,1.21-4.63-.91.02-.71-.73-.71-.73C55.3.64,44.24,0,44.24,0h-1.69s-11.06.64-9.52,13.09c0,0,.21.76-.72.73-1.14-.03-1.24,2.74,1.22,4.63,0,0,.57,3.21,2.06,4.41,0,0,.56,2.73.12,5.19h15.38c-.45-2.46.12-5.19.12-5.19Z"/>
        <path d="M81.88,102.23c-1.22-1.53-2.79-3.57-3.24-4.79-.74-2.06-1.3-8.67-1.3-8.67-.23-7.81-2.16-11.2-2.16-11.2-3.3-5.28-3.92-15.13-3.92-15.13l-.15-16.64c-1.16-11.35-9.52-11.43-9.52-11.43-8.45-1.26-9.63-3.99-9.63-3.99-.46-.66-.73-1.48-.89-2.33h-15.38c-.15.85-.43,1.66-.88,2.32,0,0-1.17,2.73-9.63,3.99,0,0-8.38.08-9.51,11.43l-.16,16.64s-.61,9.85-3.92,15.14c0,0-1.92,3.39-2.14,11.2,0,0-.56,6.62-1.3,8.67-.45,1.21-2.02,3.26-3.25,4.79-2.41,2.99-6.46,9.24-4.29,9.95,0,0,1.69.16,3.91-4.26,0,0-.05,1.69-1.83,6.62-.35.91-1.84,5.59.57,3.91,0,0,1.12-.77,2.57-5.58,0,0-.78,8.1.09,8.51,1.13.55,1.75-1.05,2.26-8.14,0,0,.52-2.29.77,6.45.01.45.67,2.7,1.6.78.78-1.61.43-5.86.43-7.29,0,0,1,5.52,1.93,5.52,0,0,1.1,1.29.65-5.57-.07-1.12.32-3.42.37-4.09l.11-2.63s-.27-3.01-.27-4.27c0-.31,1.08-4.41,3.92-8.75,0,0,5.91-10.49,5.53-17.34,0,0-.08-6.54,2.3-10.24,0,0,1.69,18.53.54,23.73,0,0-5.32,12.78-4.15,22.31.86,7.09,2.53,22.24,4.23,28.22.89,3.09.36,10.9,1.07,12.85.32.85.15,1.63-.54,3.54-2.39,6.71-2.08,11.44,3.92,29.24,0,0,1.85,3.95.91,11.03,0,0-3.84,7.89-1.38,8.05,0,0,.19.52,1.02.11,0,0,1.33,1.37,2.76.63,0,0,1.33,1.06,2.46.12,0,0,.91,1.05,2.24.2,0,0,1.74,1.17,2.78-.1,0,0,1.84.41-1.43-7.89,0,0-1.25-8.79-1.95-10.52-1.32-3.27-.39-12.25-.11-14.17.45-3.22.21-8.7-.62-12.93-.61-3.04,1.04-8.77,1.64-12.3,1.24-7.42,3.68-26.37,3.38-29.96l1.01.35c.72,0,1.18-.35,1.18-.35-.3,3.58,2.13,22.53,3.38,29.96.6,3.52,2.23,9.26,1.64,12.3-.84,4.24-1.08,9.74-.62,12.93.29,1.94,1.21,10.9-.1,14.17-.69,1.72-1.95,10.52-1.95,10.52-3.28,8.29-1.43,7.89-1.43,7.89,1.02,1.25,2.76.1,2.76.1,1.33.85,2.25-.2,2.25-.2,1.14.94,2.47-.12,2.47-.12,1.43.74,2.76-.63,2.76-.63.82.41,1.02-.11,1.02-.11,2.47-.16-1.38-8.05-1.38-8.05-.92-7.09.91-11.03.91-11.03,6-17.8,6.31-22.53,3.91-29.24-.68-1.94-.85-2.7-.54-3.54.72-1.94.2-9.75,1.07-12.85,1.69-5.98,3.36-21.14,4.23-28.22,1.17-9.53-4.14-22.31-4.14-22.31-1.16-5.2.54-23.73.54-23.73,2.38,3.7,2.29,10.24,2.29,10.24-.38,6.86,5.54,17.34,5.54,17.34,2.84,4.33,3.92,8.44,3.92,8.75,0,1.25-.27,4.27-.27,4.27l.11,2.63c.05.67.43,2.98.36,4.09-.44,6.86.65,5.57.65,5.57.92,0,1.93-5.52,1.93-5.52,0,1.42-.35,5.69.42,7.3.92,1.92,1.59-.33,1.61-.78.24-8.74.77-6.45.77-6.45.51,7.09,1.14,8.69,2.27,8.14.85-.41.07-8.51.07-8.51,1.46,4.81,2.57,5.58,2.57,5.58,2.41,1.69.92-2.98.59-3.91-1.78-4.92-1.84-6.62-1.84-6.62,2.23,4.42,3.91,4.26,3.91,4.26,2.17-.69-1.9-6.95-4.29-9.95Z"/>
      </g>
    </g>
    <g id="SVGRepo_iconCarrier-2" data-name="SVGRepo iconCarrier">
      <path class="cls-4" d="M44.29,117.7s0,.11,0,.16c.14-.05.27-.09.41-.16h-.4Z"/>
      <path class="cls-4" d="M50.9,28.06c-.45-2.46.1-5.16.1-5.16,1.5-1.2,2.1-4.4,2.1-4.4,2.1-4,2.9-5.9,2.6-6.1s-1.6,1.5-2,1.2c-.1,0-.1-.3,0-.5C55.19.6,44.19,0,44.19,0h-1.7s-11.1.6-9.5,13.1v.5c-.5.4-2.4-1.4-2.7-1.1-.3.2.6,1.9,3.3,5.9,0,0,.6,3.2,2.1,4.4,0,0,.57,2.77.08,5.26h15.13Z"/>
      <path class="cls-4" d="M81.69,102.2c-1.2-1.5-2.8-3.6-3.2-4.8-.7-2.1-1.3-8.7-1.3-8.7-.2-7.8-2.2-11.2-2.2-11.2-3.3-5.3-3.9-15.1-3.9-15.1v-16.6c-1.3-11.3-9.7-11.4-9.7-11.4-8.5-1.3-9.6-4-9.6-4-.46-.67-.74-1.49-.9-2.34h-15.13c-.16.82-.43,1.6-.88,2.24,0,0-1.2,2.7-9.6,4,0,0-8.4,0-9.5,11.4l-.2,16.6s-.6,9.9-3.9,15.1c0,0-1.9,3.4-2.1,11.2,0,0-.6,6.6-1.3,8.7-.5,1.2-2,3.3-3.2,4.8-2.4,3-6.5,9.2-4.3,10,0,0,1.7.2,3.9-4.3,0,0,0,1.7-1.8,6.6-.3.9-1.8,5.6.6,3.9,0,0,1.1-.8,2.6-5.6,0,0-.8,8.1,0,8.5,1.1.6,1.8-1,2.3-8.1,0,0,.5-2.3.8,6.4,0,.5.7,2.7,1.6.8.8-1.6.4-5.9.4-7.3,0,0,1,5.5,1.9,5.5,0,0,1.1,1.3.6-5.6,0-1.1.3-3.4.4-4.1v-2.6c.1,0-.2-3-.2-4.3s1.1-4.4,3.9-8.7c0,0,5.9-10.5,5.5-17.3,0,0,0-6.5,2.3-10.2,0,0,1.7,18.5.5,23.7,0,0-5.3,12.8-4.1,22.3.9,7.1,2.5,22.2,4.2,28.2.9,3.1.4,10.9,1.1,12.8.3.8.2,1.6-.5,3.5-2.4,6.7-2.1,11.4,3.9,29.2,0,0,1.8,3.9.9,11,0,0-3.8,7.9-1.4,8.1,0,0,.2.5,1,.1,0,0,1.3,1.4,2.8.6,0,0,1.3,1.1,2.5.1,0,0,.9,1,2.2.2,0,0,1.7,1.2,2.8,0,0,0,1.8.4-1.4-7.9,0,0-1.3-8.8-1.9-10.5-1.3-3.3-.4-12.3-.1-14.2.5-3.2.2-8.7-.6-12.9-.6-3,1-8.8,1.6-12.3,1.2-7.4,3.7-26.4,3.4-30l1,.4c.26-.07.53-.14.79-.24,0-.05,0-.11,0-.16h.4c-.14.07-.27.11-.41.16-.23,3.95,2.13,22.44,3.41,29.84.6,3.5,2.2,9.3,1.6,12.3-.8,4.2-1.1,9.7-.6,12.9.3,1.9,1.2,10.9-.1,14.2-.7,1.7-1.9,10.5-1.9,10.5-3.3,8.3-1.4,7.9-1.4,7.9,1,1.2,2.8,0,2.8,0,1.3.8,2.2-.2,2.2-.2,1.1.9,2.5-.1,2.5-.1,1.4.7,2.8-.6,2.8-.6.8.4,1-.1,1-.1,2.5-.2-1.4-8-1.4-8-.9-7.1.9-11,.9-11,6-17.8,6.3-22.5,3.9-29.2-.7-1.9-.8-2.7-.5-3.5.7-1.9.2-9.7,1.1-12.8,1.7-6,3.4-21.1,4.2-28.2,1.2-9.5-4.1-22.3-4.1-22.3-1.2-5.2.5-23.7.5-23.7,2.4,3.7,2.3,10.2,2.3,10.2-.4,6.9,5.5,17.3,5.5,17.3,2.8,4.3,3.9,8.4,3.9,8.7,0,1.2-.3,4.3-.3,4.3v2.6c.2.7.5,3,.5,4.1-.4,6.9.6,5.6.6,5.6.9,0,1.9-5.5,1.9-5.5,0,1.4-.3,5.7.4,7.3.9,1.9,1.6-.3,1.6-.8.2-8.7.8-6.4.8-6.4.5,7.1,1.1,8.7,2.3,8.1.9-.4,0-8.5,0-8.5,1.5,4.8,2.6,5.6,2.6,5.6,2.4,1.7.9-3,.6-3.9-1.8-4.9-1.8-6.6-1.8-6.6,2.2,4.4,3.9,4.3,3.9,4.3,2.2-.7-1.9-7-4.3-10Z"/>
    </g>
  </g>
  <g id="chest">
    <g id="SVGRepo_iconCarrier-3" data-name="SVGRepo iconCarrier">
      <path class="cls-2" d="M60.89,34.8c-.04-.17-.08-.34-.12-.51-7.91-1.33-8.97-3.89-8.97-3.89-.46-.67-.74-1.49-.9-2.34h-15.13c-.16.82-.43,1.6-.88,2.24,0,0-1.19,2.67-9.46,3.98-1.04,11.9-5.94,21.85,1.02,32.78-.37,0-.6,0-.74-.05.2,2.45.63,7.96.77,13.05,10.94,0,22.87,1.98,33.82,1.01.15-7.03.9-15.27.9-15.27.17.26.33.54.47.83.35-2.36.59-4.73.72-7.09-.23,2.17-.54,4.34-.94,6.51.39-2.17.71-4.34.94-6.51.48-8.25-.24-16.49-1.5-24.74Z"/>
    </g>
  </g>
  <g id="head">
    <g id="SVGRepo_iconCarrier-4" data-name="SVGRepo iconCarrier">
      <path class="cls-1" d="M51.2,22.87c1.49-1.21,2.06-4.41,2.06-4.41,2.47-1.89,2.34-4.66,1.21-4.63-.91.02-.71-.73-.71-.73C55.3.64,44.24,0,44.24,0h-1.69s-11.06.64-9.52,13.09c0,0,.21.76-.72.73-1.14-.03-1.24,2.74,1.22,4.63,0,0,.57,3.21,2.06,4.41,0,0,.56,2.73.12,5.19h15.38c-.45-2.46.12-5.19.12-5.19Z"/>
    </g>
  </g>
  <g id="lips">
    <path class="cls-3" d="M47.44,20.24c-.19-.03-.47-.14-.76-.27-.53-.23-1.14-.48-1.79-.48-.86,0-1.33.17-1.5.25-.18-.07-.68-.22-1.38-.22-.55,0-1.22.26-1.81.49-.34.13-.66.26-.84.27-.03,0-.05.01-.06.02,0,.01.02.02.05.03.29.04.59.17.93.3.48.2,1.02.42,1.75.51.44.06.91.08,1.45.08s1.01-.03,1.38-.05c.64-.04,1.6-.46,2.18-.71.18-.08.37-.16.42-.17.03,0,.04-.02.04-.03,0-.01-.02-.02-.05-.02ZM46.55,20.32c-.38.08-1.34.25-2.86.27-1.58.02-2.75-.16-3.25-.26.34-.03.63-.08.89-.13.29-.05.55-.1.81-.1.33,0,.65.03.91.06.21.02.37.04.49.04.11,0,.25-.02.42-.03.25-.02.57-.06.88-.06.22,0,.5.04.8.09.3.05.6.09.9.11Z"/>
  </g>
</svg>